<svg xmlns="http://www.w3.org/2000/svg" version="1.1" width="3300" height="2000"><g id="Notes"><style>
    text {
      font-family: monospace;
      text-anchor: middle;
    }
    text.emphasis {
      font-weight:bold;
    }
    text.lanchor {
      text-anchor: start;
    }
  </style><rect height="2200" id="artboard" fill="white" width="3300" x="0" y="0"/><line id="" style="fill:none;stroke:black;stroke-width:0.5;" x1="263" x2="3036" y1="292" y2="292"/><text class="lanchor emphasis" transform="matrix(1 0 0 1 263 322)">Weight/Scale Variations</text><text transform="matrix(1 0 0 1 559.711 322)">Ultralight</text><text transform="matrix(1 0 0 1 856.422 322)">Thin</text><text transform="matrix(1 0 0 1 1153.13 322)">Light</text><text transform="matrix(1 0 0 1 1449.84 322)">Regular</text><text transform="matrix(1 0 0 1 1746.56 322)">Medium</text><text transform="matrix(1 0 0 1 2043.27 322)">Semibold</text><text transform="matrix(1 0 0 1 2339.98 322)">Bold</text><text transform="matrix(1 0 0 1 2636.69 322)">Heavy</text><text transform="matrix(1 0 0 1 2933.4 322)">Black</text><text id="template-version" style="text-anchor: end;" transform="matrix(1 0 0 1 3036 1933)">Template v.1.0</text><text class="lanchor" transform="matrix(1 0 0 1 263 726)">Small</text><text class="lanchor" transform="matrix(1 0 0 1 263 1156)">Medium</text><text class="lanchor" transform="matrix(1 0 0 1 263 1586)">Large</text></g><g id="Guides"><g id="H-reference" style="fill:#27AAE1;stroke:none;" transform="matrix(1 0 0 1 339 696)"><path d="M 54.9316 0 L 57.666 0 L 30.5664 -70.459 L 28.0762 -70.459 L 0.976562 0 L 3.66211 0 L 12.9395 -24.4629 L 45.7031 -24.4629 Z M 29.1992 -67.0898 L 29.4434 -67.0898 L 44.8242 -26.709 L 13.8184 -26.709 Z"/></g><line id="Baseline-S" style="fill:none;stroke:#27AAE1;opacity:1;stroke-width:0.577;" x1="263" x2="3036" y1="696" y2="696"/><line id="Capline-S" style="fill:none;stroke:#27AAE1;opacity:1;stroke-width:0.577;" x1="263" x2="3036" y1="625.541" y2="625.541"/><g id="H-reference" style="fill:#27AAE1;stroke:none;" transform="matrix(1 0 0 1 339 1126)"><path d="M 54.9316 0 L 57.666 0 L 30.5664 -70.459 L 28.0762 -70.459 L 0.976562 0 L 3.66211 0 L 12.9395 -24.4629 L 45.7031 -24.4629 Z M 29.1992 -67.0898 L 29.4434 -67.0898 L 44.8242 -26.709 L 13.8184 -26.709 Z"/></g><line id="Baseline-M" style="fill:none;stroke:#27AAE1;opacity:1;stroke-width:0.577;" x1="263" x2="3036" y1="1126" y2="1126"/><line id="Capline-M" style="fill:none;stroke:#27AAE1;opacity:1;stroke-width:0.577;" x1="263" x2="3036" y1="1055.54" y2="1055.54"/><g id="H-reference" style="fill:#27AAE1;stroke:none;" transform="matrix(1 0 0 1 339 1556)"><path d="M 54.9316 0 L 57.666 0 L 30.5664 -70.459 L 28.0762 -70.459 L 0.976562 0 L 3.66211 0 L 12.9395 -24.4629 L 45.7031 -24.4629 Z M 29.1992 -67.0898 L 29.4434 -67.0898 L 44.8242 -26.709 L 13.8184 -26.709 Z"/></g><line id="Baseline-L" style="fill:none;stroke:#27AAE1;opacity:1;stroke-width:0.577;" x1="263" x2="3036" y1="1556" y2="1556"/><line id="Capline-L" style="fill:none;stroke:#27AAE1;opacity:1;stroke-width:0.577;" x1="263" x2="3036" y1="1485.54" y2="1485.54"/><rect height="119.336" id="left-margin" style="fill:darkred;stroke:none;opacity:0.4;" width="12.4512" x="1394.06" y="1030.79"/><rect height="119.336" id="right-margin" style="fill:darkgreen;stroke:none;opacity:0.4;" width="12.4512" x="1502.5112" y="1030.79"/><rect x="1406.5112" y="1045" width="96" height="96" fill="none" stroke="blue" stroke-dasharray="5"/><rect x="1394.06" y="1030.79" width="120.9024" height="119.336" fill="none" stroke="blue"/></g><g id="Symbols"><g id="Bold-L" transform="matrix(1 0 0 1 2266 1556)"><path d="M1396.425 2812.445 V1257.995 L696.6 1961.045 L480.52500000000003 1744.9700000000003 L1548.0 677.495 L2615.475 1744.9700000000003 L2402.625 1961.045 L1699.575 1257.995 V2812.445 H1396.425 Z"/></g><g id="Semibold-L" transform="matrix(1 0 0 1 1970.27 1556)"><path d="M1420.2609750000001 2797.02305 V1180.8820249999999 L676.969425 1925.992475 L495.9469500000001 1744.9700000000003 L1548.0 692.91695 L2600.05305 1744.9700000000003 L2420.8527000000004 1925.992475 L1675.739025 1180.8820249999999 V2797.02305 H1420.2609750000001 Z"/></g><g id="Medium-L" transform="matrix(1 0 0 1 1674.31 1556)"><path d="M1438.140375 2785.45175 V1123.0351999999998 L662.2473000000001 1899.6990499999997 L507.51825 1744.9700000000003 L1548.0 704.48825 L2588.48175 1744.9700000000003 L2434.523475 1899.6990499999997 L1657.8596250000003 1123.0351999999998 V2785.45175 H1438.140375 Z"/></g><g id="Regular-L" transform="matrix(1 0 0 1 1378.56 1556)"><path d="M1451.25 2776.97 V1080.62 L651.45 1880.42 L516.0 1744.9700000000003 L1548.0 712.97 L2580.0 1744.9700000000003 L2444.55 1880.42 L1644.75 1080.62 V2776.97 H1451.25 Z"/></g><g id="Light-L" transform="matrix(1 0 0 1 1082.77 1556)"><path d="M1474.8183 2727.35015 V1040.923475 L668.816625 1846.928375 L565.61985 1744.9700000000003 L1548.0 762.5898500000001 L2530.38015 1744.9700000000003 L2427.183375 1846.928375 L1621.1817 1040.923475 V2727.35015 H1474.8183 Z"/></g><g id="Thin-L" transform="matrix(1 0 0 1 787.282 1556)"><path d="M1498.3833750000001 2677.739975 V1001.2366250000001 L686.180025 1813.4399750000002 L615.2300250000001 1744.9700000000003 L1548.0 812.2000250000001 L2480.769975 1744.9700000000003 L2409.819975 1813.4399750000002 L1597.616625 1001.2366250000001 V2677.739975 H1498.3833750000001 Z"/></g><g id="Ultralight-L" transform="matrix(1 0 0 1 491.205 1556)"><path d="M1512.525 2647.97 V977.42 L696.6 1793.3450000000003 L645.0 1744.9700000000003 L1548.0 841.97 L2451.0 1744.9700000000003 L2399.4 1793.3450000000003 L1583.4750000000001 977.42 V2647.97 H1512.525 Z"/></g><g id="Bold-M" transform="matrix(1 0 0 1 2281.8 1126)"><path d="M2085.0 4459.77 V2319.77 L1170.0 3234.77 L725.0 2784.77 L2400.0 1109.77 L4075.0 2784.77 L3630.0 3234.77 L2715.0 2319.77 V4459.77 H2085.0 Z"/></g><g id="Semibold-M" transform="matrix(1 0 0 1 1985.97 1126)"><path d="M2134.995 4427.165000000001 V2158.91 L1130.8700000000001 3163.0350000000003 L757.6049999999999 2784.77 L2400.0 1142.375 L4042.3950000000004 2784.77 L3669.13 3163.0350000000003 L2665.005 2158.91 V4427.165000000001 H2134.995 Z"/></g><g id="Medium-M" transform="matrix(1 0 0 1 1689.91 1126)"><path d="M2172.5 4402.705 V2038.25 L1101.52 3109.225 L782.065 2784.77 L2400.0 1166.835 L4017.935 2784.77 L3698.48 3109.225 L2627.5 2038.25 V4402.705 H2172.5 Z"/></g><g id="Regular-M" transform="matrix(1 0 0 1 1394.06 1126)"><path d="M2200.0 4384.77 V1949.77 L1080.0 3069.77 L800.0 2784.77 L2400.0 1184.77 L4000.0 2784.77 L3720.0 3069.77 L2600.0 1949.77 V4384.77 H2200.0 Z"/></g><g id="Light-M" transform="matrix(1 0 0 1 1098.18 1126)"><path d="M2250.005 4307.84 V1836.3 L1087.695 2998.61 L876.93 2784.77 L2400.0 1261.7 L3923.07 2784.77 L3712.3050000000003 2998.61 L2549.995 1836.3 V4307.84 H2250.005 Z"/></g><g id="Thin-M" transform="matrix(1 0 0 1 802.565 1126)"><path d="M2300.0 4230.925 V1722.85 L1095.385 2927.4649999999997 L953.845 2784.77 L2400.0 1338.615 L3846.1549999999997 2784.77 L3704.615 2927.4649999999997 L2500.0 1722.85 V4230.925 H2300.0 Z"/></g><g id="Ultralight-M" transform="matrix(1 0 0 1 506.415 1126)"><path d="M2330.0 4184.77 V1654.77 L1100.0 2884.77 L1000.0 2784.77 L2400.0 1384.77 L3800.0 2784.77 L3700.0 2884.77 L2470.0 1654.77 V4184.77 H2330.0 Z"/></g><g id="Bold-S" transform="matrix(1 0 0 1 2294.23 696)"><path d="M1993.014 4078.6159999999995 V2284.43 L1235.574 3041.87 L837.918 2644.214 L2272.32 1209.8120000000001 L3706.722 2644.214 L3309.066 3041.87 L2551.626 2284.43 V4078.6159999999995 H1993.014 Z"/></g><g id="Semibold-S" transform="matrix(1 0 0 1 1998.1 696)"><path d="M2040.3492660000002 4047.7455860000005 V2132.127752 L1198.525716 2973.951302 L868.788414 2644.214 L2272.32 1240.682414 L3675.851586 2644.214 L3346.114284 2973.951302 L2504.2907339999997 2132.127752 V4047.7455860000005 H2040.3492660000002 Z"/></g><g id="Medium-S" transform="matrix(1 0 0 1 1701.85 696)"><path d="M2075.859 4024.586858 V2017.8868640000003 L1170.737136 2923.0039939999997 L891.9471420000001 2644.214 L2272.32 1263.8411420000002 L3652.692858 2644.214 L3373.902864 2923.0039939999997 L2468.781 2017.8868640000003 V4024.586858 H2075.859 Z"/></g><g id="Regular-S" transform="matrix(1 0 0 1 1405.73 696)"><path d="M2101.896 4007.6059999999998 V1934.114 L1150.362 2885.6479999999997 L908.928 2644.214 L2272.32 1280.8220000000001 L3635.712 2644.214 L3394.278 2885.6479999999997 L2442.744 1934.114 V4007.6059999999998 H2101.896 Z"/></g><g id="Light-S" transform="matrix(1 0 0 1 1109.75 696)"><path d="M2149.240734 3934.768676 V1826.680604 L1157.647626 2818.273712 L981.765324 2644.214 L2272.32 1353.6593240000002 L3562.8746760000004 2644.214 L3386.992374 2818.273712 L2395.399266 1826.680604 V3934.768676 H2149.240734 Z"/></g><g id="Thin-S" transform="matrix(1 0 0 1 814.015 696)"><path d="M2196.576 3861.945554 V1719.266144 L1164.928518 2750.9136259999996 L1054.588446 2644.214 L2272.32 1426.482446 L3490.051554 2644.214 L3379.711482 2750.9136259999996 L2348.064 1719.266144 V3861.945554 H2196.576 Z"/></g><g id="Ultralight-S" transform="matrix(1 0 0 1 517.792 696)"><path d="M2224.98 3818.2459999999996 V1654.808 L1169.298 2710.49 L1098.288 2644.214 L2272.32 1470.182 L3446.352 2644.214 L3375.342 2710.49 L2319.66 1654.808 V3818.2459999999996 H2224.98 Z"/></g></g></svg>